<?xml version="1.0" encoding="UTF-8"?>
<svg version="1.1" xmlns="http://www.w3.org/2000/svg" width="2000" height="1850">
<path d="M0 0 C1.9100372 -0.00408152 3.82007203 -0.00943211 5.73010254 -0.01593018 C10.84374375 -0.02942115 15.95720016 -0.02438208 21.07084394 -0.01479292 C26.467476 -0.00710151 31.86409412 -0.01426775 37.26072693 -0.01895142 C46.31561064 -0.02438128 55.37042051 -0.01729017 64.42529297 -0.00292969 C74.83865289 0.01339635 85.25183652 0.00809733 95.66519219 -0.0084089 C104.66717855 -0.02209738 113.66911238 -0.02390787 122.6711058 -0.0160929 C128.02083877 -0.0114572 133.37048934 -0.01067676 138.72021675 -0.02070236 C143.75283283 -0.02947812 148.78522534 -0.02316028 153.81781769 -0.00601959 C155.64571451 -0.00211081 157.47363073 -0.00309003 159.30151939 -0.00980759 C197.35895568 -0.13659096 233.09872068 10.59594873 263.75170898 33.38818359 C264.62827148 34.03916016 265.50483398 34.69013672 266.40795898 35.36083984 C280.46107639 46.3451289 293.0480845 59.41383059 302.75170898 74.38818359 C303.18032227 75.04753906 303.60893555 75.70689453 304.05053711 76.38623047 C312.94199345 90.28658472 319.37582992 105.01796304 324.06420898 120.82568359 C324.40983887 121.96602051 324.40983887 121.96602051 324.76245117 123.12939453 C329.33942529 139.50837534 330.1878958 156.12752047 330.04467773 173.02880859 C330.03906222 175.01804276 330.03480142 177.00728115 330.03181458 178.996521 C330.02051936 184.15848848 329.9911899 189.32019085 329.95770264 194.48205566 C329.92666551 199.77885352 329.91323837 205.07569545 329.89819336 210.37255859 C329.8663008 220.71121488 329.81529729 231.04967695 329.75170898 241.38818359 C330.99428467 241.530625 332.23686035 241.67306641 333.51708984 241.81982422 C352.35146365 243.9788836 368.88484668 256.30466278 381.75170898 269.38818359 C382.57413086 270.21189453 383.39655273 271.03560547 384.24389648 271.88427734 C413.34824236 302.54958294 417.23221784 342.3340379 417.14388299 382.4412446 C417.13703096 387.05210064 417.14760388 391.6629239 417.15582275 396.27377319 C417.1690973 405.28198491 417.16631053 414.29012124 417.15758483 423.29833579 C417.15078381 430.62562407 417.14990197 437.95289135 417.15315628 445.28018188 C417.15361598 446.32675911 417.15407568 447.37333634 417.15454931 448.45162803 C417.15550857 450.57834999 417.15648122 452.70507195 417.15746708 454.8317939 C417.16600258 474.7303534 417.15621581 494.6288713 417.14006598 514.52742398 C417.12666449 531.56664331 417.1289931 548.60580131 417.14282227 565.64501953 C417.15891068 585.47692847 417.16517878 605.30880104 417.15598547 625.1407156 C417.15502992 627.25920549 417.15408681 629.3776954 417.15315628 631.4961853 C417.15269345 632.53826891 417.15223063 633.58035251 417.15175378 634.65401441 C417.14917366 641.96455249 417.15351368 649.27506732 417.16059494 656.58560181 C417.16904648 665.5060735 417.16665349 674.42646609 417.15075271 683.34692883 C417.14291887 687.89010672 417.13969396 692.43315317 417.14970016 696.9763298 C417.20893319 726.36657475 415.2949386 752.78758014 401.75170898 779.38818359 C401.27991211 780.35240234 400.80811523 781.31662109 400.32202148 782.31005859 C388.14345931 806.11673945 366.9267772 824.57723389 341.75170898 833.38818359 C327.9827085 837.53879442 314.08093602 837.53194643 299.83374023 837.48583984 C298.12310325 837.48397096 296.41246572 837.48254928 294.701828 837.48155212 C290.23524454 837.47776396 285.76869445 837.46796599 281.30212402 837.45684814 C276.72998506 837.44655375 272.15784061 837.44203743 267.58569336 837.43701172 C258.64101737 837.42633981 249.69636597 837.40930874 240.75170898 837.38818359 C240.75284815 838.29137793 240.75398731 839.19457227 240.75516099 840.12513614 C240.82230116 893.66061222 240.87377168 947.19608383 240.90490497 1000.73159359 C240.90865707 1007.16025518 240.91254004 1013.58891667 240.91650391 1020.01757812 C240.91729084 1021.29740414 240.91807777 1022.57723015 240.91888855 1023.89583877 C240.931941 1044.6161958 240.95559398 1065.33652786 240.98316737 1086.05687007 C241.01122599 1107.31923979 241.02788622 1128.58159642 241.03397447 1149.84398389 C241.03808995 1162.96306342 241.05108659 1176.08207233 241.07545839 1189.20113012 C241.09132118 1198.19843042 241.09610809 1207.19569423 241.09221312 1216.1930075 C241.09029244 1221.38327549 241.09322847 1226.57342012 241.10932541 1231.76366615 C241.12396846 1236.51994638 241.12463278 1241.27602076 241.11440567 1246.03231063 C241.11314242 1247.74853309 241.1169105 1249.4647686 241.12635853 1251.18096551 C241.19193222 1263.83283984 239.97140433 1275.21004938 234.00170898 1286.57568359 C233.47565063 1287.59674194 233.47565063 1287.59674194 232.93896484 1288.63842773 C230.08168133 1294.04411667 226.87836489 1298.85678105 222.75170898 1303.38818359 C222.07495117 1304.14486328 221.39819336 1304.90154297 220.70092773 1305.68115234 C210.34279032 1316.66482559 195.01687155 1325.7871358 179.75170898 1327.38818359 C177.41839335 1327.39727301 175.08502166 1327.39800237 172.75170898 1327.38818359 C172.75447436 1328.36810524 172.75723974 1329.34802689 172.76008892 1330.35764313 C172.82683341 1354.25554641 172.87605529 1378.15343753 172.9071455 1402.05141449 C172.92258201 1413.60852888 172.94360975 1425.16558151 172.97802734 1436.72265625 C173.00802847 1446.80157372 173.02730733 1456.88044644 173.03397447 1466.95940733 C173.03786864 1472.29089114 173.04695277 1477.62224698 173.06889915 1482.95368958 C173.08943393 1487.98350087 173.09550883 1493.01313286 173.09103203 1498.0429821 C173.09184969 1499.87781185 173.09771323 1501.7126483 173.10932541 1503.54744148 C173.26625618 1529.64882544 167.2770623 1552.29900104 149.75170898 1572.38818359 C149.2219043 1573.00177734 148.69209961 1573.61537109 148.14624023 1574.24755859 C135.29373686 1588.08383383 114.52578914 1598.76060018 95.63002509 1599.51238209 C94.44719626 1599.51200237 93.26436743 1599.51162265 92.0456953 1599.51123142 C91.38146035 1599.51238527 90.71722539 1599.51353911 90.0328621 1599.51472792 C87.80339224 1599.51737831 85.57399436 1599.51288542 83.3445282 1599.50843811 C81.73154061 1599.50887413 80.11855309 1599.50974962 78.50556594 1599.51102728 C74.07023987 1599.5132661 69.63493789 1599.50925928 65.19961488 1599.50424922 C60.41779034 1599.49993615 55.63596718 1599.50139175 50.85414124 1599.50215149 C42.56830714 1599.50267618 34.28248091 1599.49953509 25.99664879 1599.49391365 C14.01668328 1599.48579124 2.03672158 1599.48318267 -9.94324639 1599.48192566 C-29.37932136 1599.47973631 -48.81539215 1599.47307938 -68.25146484 1599.46362305 C-87.13330057 1599.45444591 -106.01513515 1599.44736655 -124.89697266 1599.44311523 C-126.06058731 1599.44285251 -127.22420197 1599.44258979 -128.42307768 1599.4423191 C-134.26051229 1599.44101408 -140.09794691 1599.43975037 -145.93538153 1599.4385072 C-194.37302093 1599.42813823 -242.81065577 1599.41052307 -291.24829102 1599.38818359 C-291.04499504 1600.39494227 -291.04499504 1600.39494227 -290.83759207 1601.42203951 C-288.19132714 1614.54372143 -285.58407665 1627.66635095 -283.20556641 1640.83935547 C-282.93889528 1642.30675652 -282.67202713 1643.77412177 -282.40498352 1645.24145508 C-281.69631954 1649.13840505 -280.99032553 1653.03583399 -280.28489614 1656.93337059 C-279.53396935 1661.07945341 -278.78043004 1665.22506149 -278.02720642 1669.37072754 C-276.60193999 1677.21739616 -275.17890706 1685.06446801 -273.75673431 1692.91169786 C-272.15914096 1701.72627076 -270.5591001 1710.54039876 -268.95881665 1719.3544836 C-266.99460548 1730.17313142 -265.03075554 1740.99184455 -263.06886292 1751.81091309 C-262.93088281 1752.57170087 -262.79290271 1753.33248866 -262.6507414 1754.11633062 C-261.97502055 1757.84229248 -261.29966835 1761.56832042 -260.62507725 1765.294487 C-259.40572534 1772.02691574 -258.18213452 1778.75849863 -256.94432527 1785.4875617 C-256.37700866 1788.57210944 -255.81148184 1791.65698431 -255.2459954 1794.74186802 C-254.97763867 1796.20259006 -254.708325 1797.66313666 -254.43800175 1799.12349606 C-254.06667251 1801.12962815 -253.69876948 1803.13639352 -253.33103943 1805.14318848 C-253.12126685 1806.2806678 -252.91149427 1807.41814713 -252.69536495 1808.59009552 C-252.24829102 1811.38818359 -252.24829102 1811.38818359 -252.24829102 1814.38818359 C-257.57601745 1812.78459069 -261.42220956 1809.31184581 -265.68579102 1805.88818359 C-271.16559935 1801.5541031 -276.6570502 1797.2815311 -282.37329102 1793.26318359 C-287.2902932 1789.80118378 -292.13403962 1786.25853765 -296.93579102 1782.63818359 C-302.7860105 1778.2289925 -308.66046869 1773.85513519 -314.56079102 1769.51318359 C-315.35356445 1768.92972168 -316.14633789 1768.34625977 -316.96313477 1767.74511719 C-319.39112578 1765.95893559 -321.81961364 1764.17343181 -324.24829102 1762.38818359 C-333.92825144 1755.27273372 -343.59604965 1748.14414164 -353.19702148 1740.92236328 C-360.70035881 1735.28509274 -368.26359642 1729.7294708 -375.82495117 1724.17041016 C-380.59430028 1720.66282921 -385.35919664 1717.1492019 -390.12475586 1713.63647461 C-394.06900101 1710.72952786 -398.01456647 1707.8244123 -401.96313477 1704.92333984 C-410.93388461 1698.32894757 -419.86563904 1691.68600637 -428.76538086 1684.99609375 C-436.768355 1678.98569049 -444.82378177 1673.04800437 -452.8894043 1667.12207031 C-457.63834925 1663.63138443 -462.38147419 1660.13279349 -467.12573242 1656.63574219 C-471.06966007 1653.72905049 -475.01489437 1650.82417139 -478.96313477 1647.92333984 C-487.92798201 1641.33328657 -496.85396726 1634.69485635 -505.74780273 1628.00927734 C-511.5814159 1623.62807755 -517.43670918 1619.27746925 -523.31079102 1614.95068359 C-524.04749023 1614.40798828 -524.78418945 1613.86529297 -525.54321289 1613.30615234 C-526.96198458 1612.26275074 -528.38765113 1611.22864011 -529.8210182 1610.20538117 C-532.24829102 1608.38818359 -532.24829102 1608.38818359 -534.54113405 1606.34907924 C-542.36937127 1599.76002151 -549.25931405 1599.25653391 -559.05004406 1599.39935684 C-560.64067709 1599.39293599 -562.23129908 1599.38300312 -563.8218911 1599.36990005 C-568.18764581 1599.34406067 -572.55192029 1599.36789815 -576.91758158 1599.39992029 C-581.66897309 1599.42589908 -586.42020107 1599.40527564 -591.17160922 1599.39056468 C-599.49743389 1599.37117282 -607.82281293 1599.38138464 -616.14860153 1599.41099739 C-628.52948272 1599.45487208 -640.91005798 1599.45279144 -653.29099626 1599.44112299 C-674.12210146 1599.42271151 -694.95302268 1599.4409319 -715.78409386 1599.47940826 C-736.42069489 1599.51728832 -757.05718978 1599.53689196 -777.69382668 1599.53273773 C-778.97727836 1599.5324818 -780.26073004 1599.53222587 -781.58307419 1599.53196218 C-788.10146495 1599.53053977 -794.61985554 1599.52874817 -801.13824616 1599.52678642 C-814.39379609 1599.52290841 -827.64934629 1599.5216047 -840.90489674 1599.52122116 C-841.56810897 1599.5211991 -842.23132121 1599.52117704 -842.91463079 1599.52115431 C-874.47324706 1599.52027963 -906.03183185 1599.54555796 -937.59043216 1599.57518382 C-939.68412251 1599.57714893 -941.77781286 1599.57910644 -943.87150322 1599.58106142 C-946.66605898 1599.58367086 -949.46061473 1599.58628191 -952.25517048 1599.58889479 C-958.55479978 1599.59478341 -964.85442908 1599.6006617 -971.15405841 1599.60650761 C-972.55587348 1599.60780901 -973.95768854 1599.60911241 -975.3595036 1599.61041782 C-1007.59587606 1599.64041597 -1039.8322512 1599.6607762 -1072.06863349 1599.67669924 C-1074.16058588 1599.6777341 -1076.25253826 1599.67877953 -1078.34449065 1599.67982652 C-1109.8655666 1599.6955437 -1141.38663962 1599.70642798 -1172.90771961 1599.70797348 C-1174.24611498 1599.70804448 -1175.58451035 1599.70811552 -1176.92290572 1599.7081866 C-1188.84262794 1599.70879445 -1200.76235015 1599.70917835 -1212.68207238 1599.70856997 C-1242.40840624 1599.70706656 -1272.13465672 1599.7173811 -1301.86096668 1599.75686475 C-1322.57814128 1599.78434205 -1343.29528715 1599.79897406 -1364.0124804 1599.79991373 C-1376.32013772 1599.80099609 -1388.62766356 1599.81356374 -1400.93528796 1599.8423062 C-1409.15924202 1599.86044203 -1417.38312067 1599.86409911 -1425.60709061 1599.85609797 C-1430.29100271 1599.85197713 -1434.97467295 1599.85416888 -1439.65854915 1599.87424091 C-1443.92728136 1599.8924277 -1448.19560206 1599.89187495 -1452.46434318 1599.87695228 C-1453.99160045 1599.87480613 -1455.51888652 1599.87924908 -1457.04609658 1599.89144687 C-1481.65489758 1600.07618325 -1502.50837888 1591.36737908 -1520.24829102 1574.38818359 C-1520.88637695 1573.81326172 -1521.52446289 1573.23833984 -1522.18188477 1572.64599609 C-1535.50586913 1560.24193048 -1543.07056995 1541.14185585 -1545.24829102 1523.38818359 C-1545.33610992 1520.9281475 -1545.37565607 1518.46610032 -1545.37709218 1516.00449765 C-1545.37886719 1515.29004153 -1545.3806422 1514.57558541 -1545.382471 1513.8394791 C-1545.38720047 1511.44637829 -1545.38484055 1509.05333803 -1545.38251209 1506.66023445 C-1545.38446579 1504.91938892 -1545.38685493 1503.17854384 -1545.38964006 1501.43769944 C-1545.39604095 1496.6366923 -1545.39620161 1491.8357019 -1545.39536265 1487.03469131 C-1545.39553214 1481.81789952 -1545.40143807 1476.60111372 -1545.40660352 1471.38432491 C-1545.4159332 1461.02963104 -1545.41985218 1450.67494144 -1545.42212248 1440.32024389 C-1545.42508358 1427.9204556 -1545.43378043 1415.52067298 -1545.44253676 1403.12088766 C-1545.46338561 1373.1488555 -1545.473855 1343.17682345 -1545.48266637 1313.20478593 C-1545.4856008 1303.27848696 -1545.48897076 1293.35218821 -1545.49263358 1283.42588949 C-1545.49289187 1282.72550909 -1545.49315016 1282.02512868 -1545.49341628 1281.30352462 C-1545.49446252 1278.4699496 -1545.49551095 1275.63637459 -1545.4965621 1272.80279957 C-1545.51452673 1224.33257404 -1545.52990517 1175.86234817 -1545.53732113 1127.39211979 C-1545.5379051 1123.5852305 -1545.53850237 1119.77834122 -1545.53909875 1115.97145193 C-1545.53921687 1115.21629186 -1545.53933499 1114.4611318 -1545.53945669 1113.68308809 C-1545.54065406 1106.0323539 -1545.54186283 1098.38161972 -1545.54308922 1090.73088553 C-1545.54333446 1089.19690013 -1545.54357831 1087.66291473 -1545.54382079 1086.12892933 C-1545.55160942 1036.86977162 -1545.5739905 987.61063776 -1545.60649722 938.35149047 C-1545.62984746 902.95570689 -1545.65139678 867.55992804 -1545.65850353 832.16413689 C-1545.65865055 831.43598043 -1545.65879757 830.70782397 -1545.65894905 829.95760216 C-1545.66213411 813.97150514 -1545.66418484 797.98540817 -1545.6651766 781.99931087 C-1545.66559133 775.56687125 -1545.66614622 769.13443164 -1545.66673851 762.70199203 C-1545.66679918 761.99801332 -1545.66685985 761.29403461 -1545.66692235 760.56872321 C-1545.66893714 737.90573336 -1545.68316671 715.24277167 -1545.70368351 692.57979164 C-1545.72485425 669.11121553 -1545.73161293 645.64268515 -1545.72180972 622.17409737 C-1545.71659115 608.64692305 -1545.72248922 595.11986049 -1545.74434439 581.59270224 C-1545.75784392 572.55442054 -1545.75678291 563.51621585 -1545.74394244 554.47793339 C-1545.73704031 549.32968226 -1545.73639522 544.18164494 -1545.75350253 539.03341283 C-1545.76896414 534.34211734 -1545.76572437 529.65120652 -1545.74809225 524.95992208 C-1545.74496404 523.28081414 -1545.74841614 521.60167635 -1545.75958399 519.92260264 C-1545.89867426 497.53727693 -1539.84576501 478.31212658 -1526.24829102 460.38818359 C-1525.74555664 459.71142578 -1525.24282227 459.03466797 -1524.72485352 458.33740234 C-1511.89573232 442.20830488 -1490.04669424 431.47197532 -1469.79039258 429.1004191 C-1463.42131563 428.4968132 -1457.13369923 428.24744796 -1450.73823547 428.26792908 C-1449.74061713 428.26707465 -1448.74299878 428.26622023 -1447.71514958 428.26533991 C-1444.4049702 428.26370563 -1441.09484261 428.26917257 -1437.78466797 428.2746582 C-1435.39883933 428.27494054 -1433.0130106 428.27478142 -1430.62718201 428.2742157 C-1424.84208734 428.2739592 -1419.05700937 428.2782773 -1413.27191851 428.28465336 C-1406.53506458 428.29182851 -1399.79821295 428.29330083 -1393.06135573 428.29444153 C-1381.04920109 428.29662526 -1369.03705328 428.3032669 -1357.02490234 428.31274414 C-1345.36246779 428.32193585 -1333.7000351 428.32900806 -1322.03759766 428.33325195 C-1320.9576532 428.33364604 -1320.9576532 428.33364604 -1319.85589168 428.33404808 C-1316.24372343 428.33535321 -1312.63155516 428.3366169 -1309.01938689 428.33785999 C-1279.09568348 428.34821146 -1249.17198805 428.36588607 -1219.24829102 428.38818359 C-1219.25647354 427.49917862 -1219.26465607 426.61017365 -1219.27308655 425.69422913 C-1219.29993437 422.3524157 -1219.31941262 419.0107192 -1219.3341217 415.6688385 C-1219.34191277 414.23060786 -1219.35252442 412.79238932 -1219.36616516 411.35420227 C-1219.56307772 390.03807028 -1214.85830414 372.58685834 -1200.24829102 356.38818359 C-1199.65661133 355.70369141 -1199.06493164 355.01919922 -1198.45532227 354.31396484 C-1186.02691523 340.82556573 -1168.00082428 333.179491 -1149.81785665 332.20417939 C-1145.84500798 332.13467984 -1141.87477078 332.12679083 -1137.90160084 332.14208794 C-1136.36071584 332.14060637 -1134.81983148 332.13824677 -1133.27894899 332.13509494 C-1129.05187574 332.1289806 -1124.82489931 332.1352873 -1120.5978333 332.14365121 C-1115.99652705 332.15053845 -1111.39523032 332.14577443 -1106.79392213 332.14249623 C-1098.73215764 332.13835331 -1090.6704227 332.14162853 -1082.60866165 332.14977264 C-1070.62114532 332.16184895 -1058.63364761 332.16244367 -1046.6461263 332.16068867 C-1026.48064973 332.15806146 -1006.31518627 332.16474146 -986.14971352 332.17672348 C-966.18299609 332.188557 -946.21628412 332.19625527 -926.24956322 332.19842911 C-924.38744735 332.19863533 -924.38744735 332.19863533 -922.48771298 332.19884571 C-916.18323129 332.19952238 -909.87874959 332.20012514 -903.57426789 332.20069946 C-858.91816071 332.20490043 -814.26205993 332.21837399 -769.60595703 332.23730469 C-758.7844442 332.24188806 -747.96293136 332.24643881 -737.14141846 332.25085449 C-736.47025569 332.25112839 -735.79909293 332.25140229 -735.1075919 332.25168449 C-703.89954033 332.26437562 -672.69148815 332.27182479 -641.48343468 332.27792408 C-639.45706945 332.27832021 -637.43070423 332.2787186 -635.404339 332.27911744 C-621.9753685 332.28175703 -608.54639799 332.28430633 -595.11742746 332.28679516 C-567.7609987 332.2918676 -540.40457006 332.29751011 -513.04814148 332.30349731 C-511.79033359 332.30377189 -510.53252571 332.30404647 -509.23660243 332.30432937 C-425.24049566 332.3227311 -341.24439284 332.35442155 -257.24829102 332.38818359 C-257.09371933 331.11477615 -256.93914764 329.84136871 -256.77989197 328.52937317 C-254.44067832 309.25823659 -243.51435771 290.05508185 -231.24829102 275.38818359 C-230.56508789 274.54255859 -229.88188477 273.69693359 -229.17797852 272.82568359 C-215.56114515 256.74676597 -197.55459284 246.44046922 -177.24829102 241.38818359 C-176.25829102 241.38818359 -175.26829102 241.38818359 -174.24829102 241.38818359 C-174.25273224 240.43479095 -174.25717346 239.48139832 -174.26174927 238.49911499 C-174.30270482 229.41140665 -174.33246846 220.32371759 -174.35191536 211.23593712 C-174.36224999 206.56643127 -174.37621451 201.89700128 -174.39916992 197.22753906 C-174.64211419 146.3786679 -174.64211419 146.3786679 -169.74829102 127.01318359 C-169.365802 125.47392212 -169.365802 125.47392212 -168.97558594 123.90356445 C-157.3942425 79.82853018 -127.94811639 43.80625221 -88.90917969 21.0065918 C-61.36606382 5.4542422 -31.33252878 -0.11528932 0 0 Z M-42.62329102 95.13818359 C-43.28337158 95.48179932 -43.94345215 95.82541504 -44.62353516 96.17944336 C-50.39237642 99.27803443 -55.42015154 102.95815387 -60.24829102 107.38818359 C-61.38137695 108.38398437 -61.38137695 108.38398437 -62.53735352 109.39990234 C-75.91268431 121.83298475 -82.72273415 137.76039927 -86.24829102 155.38818359 C-86.24829102 183.10818359 -86.24829102 210.82818359 -86.24829102 239.38818359 C22.32170898 239.38818359 130.89170898 239.38818359 242.75170898 239.38818359 C248.07214202 169.41699057 248.07214202 169.41699057 219.70483398 110.21240234 C205.63024673 96.43220387 186.80492146 87.2359621 166.93107605 87.24101257 C166.14996737 87.23733589 165.3688587 87.2336592 164.56408006 87.22987109 C161.94977713 87.21886886 159.33551399 87.21499622 156.72119141 87.21118164 C154.84495926 87.20491409 152.96872834 87.19826703 151.09249878 87.19126892 C144.93073385 87.17025072 138.76896875 87.15986468 132.60717773 87.14990234 C130.48118896 87.14585315 128.35520032 87.14173618 126.22921181 87.13755226 C116.23391687 87.11850099 106.23862929 87.10427305 96.24331969 87.09594029 C84.73354965 87.08618511 73.2239728 87.05991024 61.71427077 87.0194394 C52.80189012 86.98918553 43.88956454 86.97446243 34.97713357 86.97115928 C29.66246067 86.96881826 24.34799416 86.95998268 19.03337669 86.9346981 C14.023966 86.91125146 9.01489512 86.90725022 4.00544357 86.91745949 C2.17867076 86.91795104 0.35188028 86.91174451 -1.47484016 86.89790344 C-15.86044051 86.79510913 -29.6967723 88.18671464 -42.62329102 95.13818359 Z M-1179.24829102 374.38818359 C-1193.82843337 392.71219025 -1197.41336889 411.53407203 -1197.37692547 434.46109295 C-1197.37827398 435.87518714 -1197.38005892 437.28928096 -1197.3822377 438.70337412 C-1197.38695092 442.58314722 -1197.38547149 446.46289675 -1197.38295993 450.34267099 C-1197.38132328 454.56601075 -1197.38547066 458.78934553 -1197.38886911 463.01268369 C-1197.39401872 470.41281725 -1197.39544107 477.81294428 -1197.39441299 485.21307945 C-1197.39288791 496.21759275 -1197.39705016 507.22209882 -1197.40228762 518.22661072 C-1197.41195957 539.02457123 -1197.4147718 559.82252927 -1197.41534468 580.62049177 C-1197.41580418 596.68133955 -1197.41786231 612.74218636 -1197.4210453 628.80303383 C-1197.42194284 633.42575639 -1197.42283266 638.04847896 -1197.42372018 642.67120153 C-1197.42394123 643.8204163 -1197.42416228 644.96963107 -1197.42439002 646.15367054 C-1197.43054439 678.47986132 -1197.43449057 710.80605176 -1197.43404675 743.13224316 C-1197.43403117 744.35106443 -1197.43401559 745.56988571 -1197.43399954 746.82564097 C-1197.43391643 753.00316642 -1197.43381739 759.18069187 -1197.43371483 765.35821732 C-1197.43369488 766.58510119 -1197.43367494 767.81198505 -1197.43365439 769.07604722 C-1197.43361395 771.55710537 -1197.43357215 774.03816353 -1197.433529 776.51922169 C-1197.43291622 815.12211184 -1197.44042326 853.72499322 -1197.45410156 892.32788086 C-1197.46946191 935.69571204 -1197.47806782 979.06353744 -1197.47713834 1022.43137151 C-1197.47706371 1027.05566585 -1197.477015 1031.67996019 -1197.47698402 1036.30425453 C-1197.47697237 1037.44287733 -1197.47696072 1038.58150013 -1197.47694871 1039.75462665 C-1197.47691793 1058.07812896 -1197.48330383 1076.40162364 -1197.49191629 1094.72512369 C-1197.50039286 1113.14037677 -1197.50138268 1131.5556187 -1197.49480697 1149.97087266 C-1197.4911114 1160.91007328 -1197.49294391 1171.84924001 -1197.50274931 1182.78843704 C-1197.50874832 1190.0989923 -1197.50745469 1197.40952301 -1197.50027881 1204.72007714 C-1197.49639669 1208.88307253 -1197.49562348 1213.04600233 -1197.50373616 1217.2089931 C-1197.51106652 1221.00386784 -1197.50901855 1224.79862296 -1197.49981229 1228.59349256 C-1197.49730676 1230.58528457 -1197.50451218 1232.57708178 -1197.51223508 1234.56886038 C-1197.41996096 1258.14264236 -1191.80030791 1278.1043438 -1175.22875977 1295.50927734 C-1158.9266333 1311.02503036 -1138.59728664 1315.73579773 -1116.68840027 1315.62869263 C-1114.73613517 1315.6312559 -1114.73613517 1315.6312559 -1112.74443036 1315.63387096 C-1109.17085876 1315.63829879 -1105.59740926 1315.63040454 -1102.02385318 1315.62031484 C-1098.15560686 1315.61161599 -1094.28736652 1315.61460501 -1090.41911316 1315.61611938 C-1083.73002195 1315.6171642 -1077.04096999 1315.61093002 -1070.35188866 1315.59964371 C-1060.68080203 1315.58333662 -1051.00973424 1315.57817539 -1041.33863536 1315.57566772 C-1025.64501701 1315.57129877 -1009.95141953 1315.55801142 -994.2578125 1315.5390625 C-979.01985783 1315.52068296 -963.78190884 1315.50653662 -948.54394531 1315.49804688 C-947.60347012 1315.49752143 -946.66299492 1315.49699598 -945.69402047 1315.49645461 C-940.97557224 1315.49384439 -936.25712397 1315.49131701 -931.53867567 1315.4888308 C-892.44186617 1315.46812321 -853.34507997 1315.43291953 -814.24829102 1315.38818359 C-814.37399926 1316.06101667 -814.49970749 1316.73384974 -814.62922508 1317.42707169 C-822.75126663 1360.82501567 -822.75126663 1360.82501567 -830.69750977 1404.25537109 C-831.13017777 1406.64771802 -831.56286159 1409.04006208 -831.99555969 1411.43240356 C-832.87262574 1416.28430314 -833.74829856 1421.13645159 -834.62304688 1425.98876953 C-835.7428728 1432.19882767 -836.86850008 1438.40782149 -837.99519634 1444.61663628 C-838.87741238 1449.48354806 -839.75575152 1454.35115348 -840.63297462 1459.21896744 C-841.04739698 1461.51495252 -841.46324367 1463.81068102 -841.88059044 1466.10613632 C-842.45347373 1469.25916055 -843.02089136 1472.41312086 -843.58691406 1475.56738281 C-843.84151398 1476.95827873 -843.84151398 1476.95827873 -844.10125732 1478.37727356 C-844.82207017 1482.42431032 -845.47569334 1486.25738119 -845.24829102 1490.38818359 C-837.35251085 1485.76202165 -830.2506197 1480.36840047 -823.07470703 1474.71582031 C-818.55728974 1471.16477832 -814.00747443 1467.69851747 -809.31079102 1464.38818359 C-796.2605707 1455.18632445 -783.49575393 1445.59093447 -770.73242188 1435.99707031 C-762.7291228 1429.98623249 -754.67321948 1424.04831238 -746.60717773 1418.12207031 C-742.65149492 1415.2144674 -738.70007008 1412.30108872 -734.74829102 1409.38818359 C-730.01208653 1405.89706881 -725.27507579 1402.40708557 -720.53344727 1398.92333984 C-712.40857355 1392.95075056 -704.30888483 1386.94731086 -696.24829102 1380.88818359 C-687.40868853 1374.24347755 -678.51888834 1367.669638 -669.60717773 1361.12207031 C-665.65149492 1358.2144674 -661.70007008 1355.30108872 -657.74829102 1352.38818359 C-653.01208653 1348.89706881 -648.27507579 1345.40708557 -643.53344727 1341.92333984 C-642.79917011 1341.38186887 -642.06489295 1340.84039789 -641.30836497 1340.2825187 C-639.73262369 1339.12679789 -638.15116375 1337.97879696 -636.56184293 1336.84182267 C-632.49985031 1333.91077712 -628.67380554 1330.92842584 -625.03590369 1327.48127675 C-611.27337983 1314.94600082 -598.19792642 1314.23170641 -580.31345231 1314.53785558 C-576.41741124 1314.58754203 -572.52199808 1314.54874866 -568.62587047 1314.5217917 C-561.81548619 1314.48654128 -555.00703804 1314.50624388 -548.19682503 1314.56310081 C-538.07006902 1314.64737124 -527.94460237 1314.64469996 -517.81758116 1314.62476617 C-500.77426841 1314.59358769 -483.73177463 1314.6314482 -466.68863678 1314.7087326 C-449.81343203 1314.78493816 -432.93863836 1314.82856936 -416.06325531 1314.82965851 C-414.48628564 1314.82977869 -414.48628564 1314.82977869 -412.877458 1314.8299013 C-407.53753539 1314.83011945 -402.197613 1314.82972814 -396.85769042 1314.82908133 C-359.06632175 1314.82539156 -321.27534091 1314.88883788 -283.48413086 1314.99414062 C-246.81975188 1315.09606157 -210.15546582 1315.17511617 -173.4909668 1315.21777344 C-172.36114978 1315.21910146 -171.23133277 1315.22042949 -170.06727888 1315.22179776 C-145.36289071 1315.25072654 -120.65849857 1315.27425744 -95.9541019 1315.2945494 C-89.39924649 1315.29994632 -82.84439117 1315.30546152 -76.28953587 1315.31099812 C-70.89231761 1315.31554985 -65.49509932 1315.32000607 -60.09788081 1315.32425347 C-34.73593294 1315.34443959 -9.37412382 1315.38161895 15.98774585 1315.44853517 C31.89220658 1315.49047532 47.79666749 1315.52363538 63.70116201 1315.54981998 C73.76264198 1315.56687198 83.82401301 1315.59293973 93.88543403 1315.63146621 C100.61180618 1315.65644617 107.33814502 1315.67054493 114.06456116 1315.67599699 C117.89296375 1315.67945267 121.72118677 1315.68768429 125.54953191 1315.70960626 C153.74207549 1315.86534406 177.76734285 1313.83851082 199.12670898 1293.51318359 C215.08382222 1276.75433534 219.24026692 1256.28618769 219.11247253 1233.98757935 C219.11378344 1232.26782777 219.11641507 1230.54807679 219.12024003 1228.82832897 C219.12690106 1224.1396301 219.11501324 1219.45113951 219.09990585 1214.76246715 C219.086886 1209.69245495 219.09133913 1204.62245342 219.09361267 1199.5524292 C219.09518166 1190.78054167 219.0858117 1182.00872136 219.06889915 1173.23685074 C219.04446281 1160.55438772 219.03669915 1147.87195703 219.03293518 1135.18947302 C219.02637796 1114.61034643 219.00643661 1094.03125562 218.97802734 1073.45214844 C218.95046788 1053.46777525 218.92924354 1033.4834118 218.91650391 1013.49902344 C218.91571574 1012.2660854 218.91492757 1011.03314736 218.91411551 1009.76284756 C218.91020025 1003.577231 218.90640916 997.39161438 218.9026798 991.20599771 C218.87160661 939.93336828 218.8187907 888.66077769 218.75170898 837.38818359 C217.95409576 837.38682706 217.15648254 837.38547054 216.33469921 837.3840729 C169.01996014 837.30335322 121.70525028 837.21237018 74.39055688 837.10813198 C68.70438183 837.09561371 63.0182066 837.08318084 57.33203125 837.07080078 C55.63406975 837.06710179 55.63406975 837.06710179 53.90180599 837.06332807 C35.59362914 837.02364739 17.28544615 836.99087933 -1.02274852 836.96068378 C-19.82060528 836.92952609 -38.61843609 836.89089832 -57.41626364 836.84539354 C-69.00750015 836.8175678 -80.59871776 836.79550922 -92.18997861 836.78092109 C-100.14776995 836.77034663 -108.10552461 836.7524902 -116.06328826 836.72901656 C-120.64858292 836.71570259 -125.23382637 836.70549456 -129.81914139 836.70396996 C-134.02856315 836.70249895 -138.23786193 836.69175215 -142.44724578 836.67404918 C-143.95897136 836.66925366 -145.4707119 836.66767753 -146.98244344 836.66990478 C-154.81193778 836.67953489 -162.52058143 836.38758731 -170.30114079 835.50359154 C-171.32639908 835.38906554 -171.32639908 835.38906554 -172.37236967 835.27222589 C-189.54215169 833.12717151 -205.37686282 824.6785194 -218.24829102 813.38818359 C-218.99336914 812.78619141 -219.73844727 812.18419922 -220.50610352 811.56396484 C-243.43436167 792.51034265 -256.04085607 760.34088789 -259.24829102 731.38818359 C-260.12912947 721.14678604 -260.39088421 710.96872715 -260.36854553 700.68959045 C-260.36898282 699.16696751 -260.36986062 697.64434464 -260.3711347 696.12172216 C-260.37334872 691.98262655 -260.36940126 687.84355729 -260.36435664 683.70446503 C-260.36000741 679.22411426 -260.36150171 674.74376477 -260.36225891 670.26341248 C-260.36278133 662.51577978 -260.35966411 654.76815555 -260.35402107 647.02052498 C-260.3458677 635.81897758 -260.34328693 624.61743424 -260.34203308 613.41588419 C-260.33984858 595.23876097 -260.33320483 577.06164226 -260.32373047 558.88452148 C-260.31454077 541.23510765 -260.30746756 523.58569504 -260.30322266 505.9362793 C-260.30295993 504.84697977 -260.30269721 503.75768024 -260.30242652 502.63537163 C-260.30112142 497.17026108 -260.29985772 491.70515051 -260.29861462 486.24003994 C-260.28826074 440.95608471 -260.27065883 395.67213438 -260.24829102 350.38818359 C-342.96557164 350.33676452 -425.68285419 350.28906615 -508.40014648 350.26115417 C-510.23654061 350.26053292 -510.23654061 350.26053292 -512.1100336 350.25989911 C-538.71662917 350.25092036 -565.32322491 350.24260982 -591.9298209 350.23498761 C-604.97770941 350.2312456 -618.02559788 350.22735594 -631.07348633 350.22338867 C-633.02111783 350.22280026 -633.02111783 350.22280026 -635.00809541 350.22219995 C-677.09283961 350.20941616 -719.17757172 350.18688241 -761.2623086 350.15929193 C-804.51022443 350.13099038 -847.75813358 350.11252638 -891.00605851 350.10643862 C-897.11467542 350.10557416 -903.2232923 350.10459725 -909.33190918 350.10355186 C-910.53417133 350.1033496 -911.73643348 350.10314733 -912.97512782 350.10293893 C-932.32738408 350.09939393 -951.67961966 350.08548014 -971.03186749 350.06768749 C-990.48791169 350.05002074 -1009.9439354 350.04328093 -1029.39998734 350.04767946 C-1040.95882152 350.04996098 -1052.51758066 350.04387982 -1064.07640129 350.02579096 C-1071.80161303 350.01452764 -1079.52677571 350.01420225 -1087.25199085 350.02268815 C-1091.65120039 350.02720987 -1096.05026818 350.02705426 -1100.44946241 350.01353405 C-1104.45998433 350.00130245 -1108.47025524 350.00316143 -1112.48077376 350.01576367 C-1113.91459879 350.01788781 -1115.34844284 350.01509663 -1116.78224353 350.00647786 C-1140.7117232 349.87187771 -1162.49308146 356.52317826 -1179.24829102 374.38818359 Z M23.75170898 359.38818359 C22.77886963 360.08363281 21.80603027 360.77908203 20.80371094 361.49560547 C18.29218526 363.32474196 16.03659282 365.28378638 13.75170898 367.38818359 C12.40012695 368.60248047 12.40012695 368.60248047 11.02124023 369.84130859 C-5.46822643 385.39826748 -15.16577939 406.43125567 -16.22436523 429.11669922 C-16.80646878 451.72086172 -7.79774625 473.02184671 7.54467773 489.39599609 C13.15237929 495.24301236 18.74879111 500.22877239 25.75170898 504.38818359 C25.21240549 513.05074934 23.9761897 521.4239771 22.33422852 529.94116211 C22.08539336 531.25595267 21.83710382 532.57084659 21.58930969 533.88583374 C20.91847477 537.43754218 20.24014678 540.98778192 19.56047678 544.53780866 C18.83634336 548.32763595 18.11948986 552.11884034 17.40182495 555.90989685 C16.03149904 563.14290822 14.65509288 570.37474794 13.27632034 577.60615343 C11.75193495 585.60233429 10.23299734 593.5995454 8.71516657 601.5969727 C8.2671796 603.95735642 7.81907908 606.31771856 7.37095261 608.67807579 C5.88923046 616.48300004 4.40842147 624.28809686 2.92877197 632.09341431 C2.78369398 632.85865233 2.63861599 633.62389035 2.4891417 634.4123174 C1.76402785 638.23708824 1.03906136 642.06188692 0.31431961 645.88672829 C-1.24266126 654.10129501 -2.80637853 662.3145309 -4.37827623 670.52625638 C-5.45053182 676.13002583 -6.51624639 681.7350135 -7.57687056 687.34099597 C-8.19017147 690.58117357 -8.80771962 693.82044427 -9.43148422 697.05862617 C-10.10833423 700.57438311 -10.7737113 704.09212376 -11.4362793 707.6105957 C-11.63716282 708.63878103 -11.83804634 709.66696636 -12.04501724 710.72630882 C-12.22030834 711.66994097 -12.39559944 712.61357311 -12.57620239 713.58580017 C-12.73123293 714.39830703 -12.88626347 715.21081388 -13.0459919 716.04794216 C-13.27400674 718.68566887 -12.87904975 720.82810781 -12.24829102 723.38818359 C47.70197381 737.38322325 109.0380037 734.72057623 169.75170898 727.38818359 C169.15930178 717.80449989 167.43716605 708.46634527 165.68823242 699.04443359 C165.37065629 697.31331999 165.05351449 695.58212667 164.73677063 693.8508606 C163.87936225 689.17134324 163.01590166 684.49296118 162.15131283 679.81476593 C161.24124352 674.88464645 160.33678952 669.95349689 159.43170166 665.02246094 C157.71335784 655.66548714 155.98997052 646.30944966 154.26477361 636.95373726 C152.32070572 626.40967587 150.38238824 615.86456013 148.44451475 605.31935883 C145.5727297 589.693084 142.69846183 574.06726746 139.81908083 558.44239044 C139.34090083 555.84642151 138.86333414 553.25034038 138.38589096 550.65423584 C136.9945222 543.09342778 135.5947405 535.53450229 134.16442871 527.98095703 C133.92665333 526.71907562 133.68887794 525.45719421 133.44389725 524.15707397 C133.01264022 521.87266598 132.577806 519.58892875 132.1384697 517.30606079 C131.95277042 516.32044159 131.76707115 515.33482239 131.57574463 514.31933594 C131.41510151 513.47930023 131.25445839 512.63926453 131.0889473 511.77377319 C130.72930241 509.22968176 130.52000721 506.95137269 130.75170898 504.38818359 C132.73287946 502.53687642 134.54034214 501.09440967 136.75170898 499.57568359 C137.95776918 498.69426926 139.16090263 497.80883628 140.36108398 496.91943359 C140.94696289 496.48759766 141.5328418 496.05576172 142.13647461 495.61083984 C158.15296368 483.48711293 167.3310282 463.74402151 171.34155273 444.56787109 C174.33443124 421.36593674 168.83772666 399.07459468 154.75170898 380.38818359 C144.44207599 367.49067668 130.6481435 355.6869951 114.75170898 350.38818359 C112.46618859 350.25294097 110.17700753 350.1772383 107.88793945 350.13183594 C107.19304413 350.11723328 106.4981488 350.10263062 105.78219604 350.08758545 C99.33584178 349.96094796 92.88825634 349.89261734 86.44091606 349.83974266 C82.12154184 349.80418992 77.80406236 349.75141042 73.4855957 349.65429688 C47.04938736 348.44718376 47.04938736 348.44718376 23.75170898 359.38818359 Z " fill="#B00CC9" transform="translate(1564.248291015625,17.61181640625)"/>
<path d="M0 0 C1.9100372 -0.00408152 3.82007203 -0.00943211 5.73010254 -0.01593018 C10.84374375 -0.02942115 15.95720016 -0.02438208 21.07084394 -0.01479292 C26.467476 -0.00710151 31.86409412 -0.01426775 37.26072693 -0.01895142 C46.31561064 -0.02438128 55.37042051 -0.01729017 64.42529297 -0.00292969 C74.83865289 0.01339635 85.25183652 0.00809733 95.66519219 -0.0084089 C104.66717855 -0.02209738 113.66911238 -0.02390787 122.6711058 -0.0160929 C128.02083877 -0.0114572 133.37048934 -0.01067676 138.72021675 -0.02070236 C143.75283283 -0.02947812 148.78522534 -0.02316028 153.81781769 -0.00601959 C155.64571451 -0.00211081 157.47363073 -0.00309003 159.30151939 -0.00980759 C197.35895568 -0.13659096 233.09872068 10.59594873 263.75170898 33.38818359 C265.06655273 34.36464844 265.06655273 34.36464844 266.40795898 35.36083984 C280.46107639 46.3451289 293.0480845 59.41383059 302.75170898 74.38818359 C303.18032227 75.04753906 303.60893555 75.70689453 304.05053711 76.38623047 C312.94199345 90.28658472 319.37582992 105.01796304 324.06420898 120.82568359 C324.29462891 121.5859082 324.52504883 122.34613281 324.76245117 123.12939453 C329.33942529 139.50837534 330.1878958 156.12752047 330.04467773 173.02880859 C330.03906222 175.01804276 330.03480142 177.00728115 330.03181458 178.996521 C330.02051936 184.15848848 329.9911899 189.32019085 329.95770264 194.48205566 C329.92666551 199.77885352 329.91323837 205.07569545 329.89819336 210.37255859 C329.8663008 220.71121488 329.81529729 231.04967695 329.75170898 241.38818359 C330.99428467 241.530625 332.23686035 241.67306641 333.51708984 241.81982422 C352.35146365 243.9788836 368.88484668 256.30466278 381.75170898 269.38818359 C382.57413086 270.21189453 383.39655273 271.03560547 384.24389648 271.88427734 C413.34824236 302.54958294 417.23221784 342.3340379 417.14388299 382.4412446 C417.13703096 387.05210064 417.14760388 391.6629239 417.15582275 396.27377319 C417.1690973 405.28198491 417.16631053 414.29012124 417.15758483 423.29833579 C417.15078381 430.62562407 417.14990197 437.95289135 417.15315628 445.28018188 C417.15361598 446.32675911 417.15407568 447.37333634 417.15454931 448.45162803 C417.15550857 450.57834999 417.15648122 452.70507195 417.15746708 454.8317939 C417.16600258 474.7303534 417.15621581 494.6288713 417.14006598 514.52742398 C417.12666449 531.56664331 417.1289931 548.60580131 417.14282227 565.64501953 C417.15891068 585.47692847 417.16517878 605.30880104 417.15598547 625.1407156 C417.15502992 627.25920549 417.15408681 629.3776954 417.15315628 631.4961853 C417.15269345 632.53826891 417.15223063 633.58035251 417.15175378 634.65401441 C417.14917366 641.96455249 417.15351368 649.27506732 417.16059494 656.58560181 C417.16904648 665.5060735 417.16665349 674.42646609 417.15075271 683.34692883 C417.14291887 687.89010672 417.13969396 692.43315317 417.14970016 696.9763298 C417.20893319 726.36657475 415.2949386 752.78758014 401.75170898 779.38818359 C401.04401367 780.83451172 401.04401367 780.83451172 400.32202148 782.31005859 C388.14345931 806.11673945 366.9267772 824.57723389 341.75170898 833.38818359 C327.49895119 837.68462115 313.09357615 837.53515453 298.35861206 837.52189636 C296.38545441 837.52376642 294.41229713 837.5260679 292.43914044 837.52876168 C287.03545563 837.534862 281.63178633 837.53474818 276.22809887 837.53356731 C270.39287263 837.53336285 264.55765131 837.53888635 258.72242737 837.54362488 C247.29677193 837.55192237 235.87112166 837.55467931 224.44546346 837.55523726 C215.15525254 837.55571286 205.86504331 837.55776982 196.57483292 837.56093788 C193.89700385 837.56183548 191.21917478 837.56272529 188.54134572 837.56361276 C187.54266075 837.56394433 187.54266075 837.56394433 186.52380033 837.5642826 C167.8050459 837.57043383 149.08629204 837.57438347 130.36753654 837.57393932 C129.66230137 837.57392374 128.9570662 837.57390817 128.23046026 837.57389212 C124.65634761 837.57380901 121.08223496 837.57370997 117.50812231 837.57360741 C116.7983403 837.57358746 116.0885583 837.57356752 115.35726774 837.57354697 C113.92191609 837.57350653 112.48656444 837.57346473 111.05121278 837.57342158 C88.72773885 837.57280905 66.40428013 837.58031246 44.08081055 837.59399414 C18.97741378 837.60937339 -6.125973 837.61795925 -31.22937477 837.61703092 C-44.51233944 837.61666101 -57.79528982 837.61943179 -71.07825089 837.63020897 C-82.38842245 837.63932691 -93.69856911 837.6414786 -105.00874276 837.63469955 C-110.77485141 837.63144084 -116.5409123 837.63135417 -122.30701637 837.6400528 C-127.59477127 837.64794747 -132.88244077 837.64645619 -138.17019366 837.63776866 C-140.07392361 837.63624019 -141.97766004 837.63802497 -143.88138236 837.64362874 C-171.82685503 837.72038132 -196.6924238 833.37183808 -218.24829102 814.38818359 C-219.0668457 813.71271484 -219.88540039 813.03724609 -220.72875977 812.34130859 C-244.78198021 791.90539417 -257.89829602 758.90608834 -260.53558236 728.02406752 C-261.16307197 719.07776135 -261.39307826 710.18118312 -261.38200378 701.21054077 C-261.38387761 699.74413197 -261.38618056 698.27772367 -261.38886911 696.81131613 C-261.39492293 692.82678318 -261.39486119 688.84227141 -261.39367473 684.85773492 C-261.39346908 680.54262492 -261.399005 676.22752144 -261.4037323 671.91241455 C-261.41200401 663.47518229 -261.41478556 655.03795702 -261.41534468 646.60072105 C-261.41582148 639.73579286 -261.41788439 632.87086695 -261.4210453 626.00593948 C-261.42984225 606.50077936 -261.43446616 586.99562471 -261.43371483 567.49046259 C-261.43367487 566.4410904 -261.43363492 565.39171822 -261.43359375 564.31054688 C-261.43355287 563.25987906 -261.43351199 562.20921124 -261.43346987 561.12670501 C-261.43306364 544.1090053 -261.44262999 527.09132774 -261.45673212 510.07363443 C-261.47113041 492.55899438 -261.47800041 475.04436511 -261.47713834 457.529719 C-261.47680757 447.7130646 -261.47950182 437.89643343 -261.49031639 428.07978439 C-261.49946695 419.72070226 -261.5015595 411.36165388 -261.49480697 403.00256889 C-261.49156465 398.74677943 -261.49140118 394.49105457 -261.50016022 390.23527145 C-261.58022192 348.64102427 -258.86394626 308.7591155 -231.24829102 275.38818359 C-230.56379883 274.53998047 -229.87930664 273.69177734 -229.17407227 272.81787109 C-215.54670698 256.74715196 -197.55744271 246.44117827 -177.24829102 241.38818359 C-176.25829102 241.38818359 -175.26829102 241.38818359 -174.24829102 241.38818359 C-174.25273224 240.43479095 -174.25717346 239.48139832 -174.26174927 238.49911499 C-174.30270482 229.41140665 -174.33246846 220.32371759 -174.35191536 211.23593712 C-174.36224999 206.56643127 -174.37621451 201.89700128 -174.39916992 197.22753906 C-174.64211419 146.3786679 -174.64211419 146.3786679 -169.74829102 127.01318359 C-169.365802 125.47392212 -169.365802 125.47392212 -168.97558594 123.90356445 C-157.3942425 79.82853018 -127.94811639 43.80625221 -88.90917969 21.0065918 C-61.36606382 5.4542422 -31.33252878 -0.11528932 0 0 Z M-42.62329102 95.13818359 C-43.28337158 95.48179932 -43.94345215 95.82541504 -44.62353516 96.17944336 C-50.39237642 99.27803443 -55.42015154 102.95815387 -60.24829102 107.38818359 C-61.38137695 108.38398437 -61.38137695 108.38398437 -62.53735352 109.39990234 C-75.91268431 121.83298475 -82.72273415 137.76039927 -86.24829102 155.38818359 C-86.24829102 183.10818359 -86.24829102 210.82818359 -86.24829102 239.38818359 C22.32170898 239.38818359 130.89170898 239.38818359 242.75170898 239.38818359 C248.07214202 169.41699057 248.07214202 169.41699057 219.70483398 110.21240234 C205.63024673 96.43220387 186.80492146 87.2359621 166.93107605 87.24101257 C166.14996737 87.23733589 165.3688587 87.2336592 164.56408006 87.22987109 C161.94977713 87.21886886 159.33551399 87.21499622 156.72119141 87.21118164 C154.84495926 87.20491409 152.96872834 87.19826703 151.09249878 87.19126892 C144.93073385 87.17025072 138.76896875 87.15986468 132.60717773 87.14990234 C130.48118896 87.14585315 128.35520032 87.14173618 126.22921181 87.13755226 C116.23391687 87.11850099 106.23862929 87.10427305 96.24331969 87.09594029 C84.73354965 87.08618511 73.2239728 87.05991024 61.71427077 87.0194394 C52.80189012 86.98918553 43.88956454 86.97446243 34.97713357 86.97115928 C29.66246067 86.96881826 24.34799416 86.95998268 19.03337669 86.9346981 C14.023966 86.91125146 9.01489512 86.90725022 4.00544357 86.91745949 C2.17867076 86.91795104 0.35188028 86.91174451 -1.47484016 86.89790344 C-15.86044051 86.79510913 -29.6967723 88.18671464 -42.62329102 95.13818359 Z M23.75170898 359.38818359 C22.77886963 360.08363281 21.80603027 360.77908203 20.80371094 361.49560547 C18.29218526 363.32474196 16.03659282 365.28378638 13.75170898 367.38818359 C12.40012695 368.60248047 12.40012695 368.60248047 11.02124023 369.84130859 C-5.46822643 385.39826748 -15.16577939 406.43125567 -16.22436523 429.11669922 C-16.80646878 451.72086172 -7.79774625 473.02184671 7.54467773 489.39599609 C13.15237929 495.24301236 18.74879111 500.22877239 25.75170898 504.38818359 C25.21240549 513.05074934 23.9761897 521.4239771 22.33422852 529.94116211 C22.08539336 531.25595267 21.83710382 532.57084659 21.58930969 533.88583374 C20.91847477 537.43754218 20.24014678 540.98778192 19.56047678 544.53780866 C18.83634336 548.32763595 18.11948986 552.11884034 17.40182495 555.90989685 C16.03149904 563.14290822 14.65509288 570.37474794 13.27632034 577.60615343 C11.75193495 585.60233429 10.23299734 593.5995454 8.71516657 601.5969727 C8.2671796 603.95735642 7.81907908 606.31771856 7.37095261 608.67807579 C5.88923046 616.48300004 4.40842147 624.28809686 2.92877197 632.09341431 C2.78369398 632.85865233 2.63861599 633.62389035 2.4891417 634.4123174 C1.76402785 638.23708824 1.03906136 642.06188692 0.31431961 645.88672829 C-1.24266126 654.10129501 -2.80637853 662.3145309 -4.37827623 670.52625638 C-5.45053182 676.13002583 -6.51624639 681.7350135 -7.57687056 687.34099597 C-8.19017147 690.58117357 -8.80771962 693.82044427 -9.43148422 697.05862617 C-10.10833423 700.57438311 -10.7737113 704.09212376 -11.4362793 707.6105957 C-11.63716282 708.63878103 -11.83804634 709.66696636 -12.04501724 710.72630882 C-12.22030834 711.66994097 -12.39559944 712.61357311 -12.57620239 713.58580017 C-12.73123293 714.39830703 -12.88626347 715.21081388 -13.0459919 716.04794216 C-13.27400674 718.68566887 -12.87904975 720.82810781 -12.24829102 723.38818359 C47.70197381 737.38322325 109.0380037 734.72057623 169.75170898 727.38818359 C169.15930178 717.80449989 167.43716605 708.46634527 165.68823242 699.04443359 C165.37065629 697.31331999 165.05351449 695.58212667 164.73677063 693.8508606 C163.87936225 689.17134324 163.01590166 684.49296118 162.15131283 679.81476593 C161.24124352 674.88464645 160.33678952 669.95349689 159.43170166 665.02246094 C157.71335784 655.66548714 155.98997052 646.30944966 154.26477361 636.95373726 C152.32070572 626.40967587 150.38238824 615.86456013 148.44451475 605.31935883 C145.5727297 589.693084 142.69846183 574.06726746 139.81908083 558.44239044 C139.34090083 555.84642151 138.86333414 553.25034038 138.38589096 550.65423584 C136.9945222 543.09342778 135.5947405 535.53450229 134.16442871 527.98095703 C133.92665333 526.71907562 133.68887794 525.45719421 133.44389725 524.15707397 C133.01264022 521.87266598 132.577806 519.58892875 132.1384697 517.30606079 C131.95277042 516.32044159 131.76707115 515.33482239 131.57574463 514.31933594 C131.41510151 513.47930023 131.25445839 512.63926453 131.0889473 511.77377319 C130.72930241 509.22968176 130.52000721 506.95137269 130.75170898 504.38818359 C132.73287946 502.53687642 134.54034214 501.09440967 136.75170898 499.57568359 C137.95776918 498.69426926 139.16090263 497.80883628 140.36108398 496.91943359 C140.94696289 496.48759766 141.5328418 496.05576172 142.13647461 495.61083984 C158.15296368 483.48711293 167.3310282 463.74402151 171.34155273 444.56787109 C174.33443124 421.36593674 168.83772666 399.07459468 154.75170898 380.38818359 C144.44207599 367.49067668 130.6481435 355.6869951 114.75170898 350.38818359 C112.46618859 350.25294097 110.17700753 350.1772383 107.88793945 350.13183594 C107.19304413 350.11723328 106.4981488 350.10263062 105.78219604 350.08758545 C99.33584178 349.96094796 92.88825634 349.89261734 86.44091606 349.83974266 C82.12154184 349.80418992 77.80406236 349.75141042 73.4855957 349.65429688 C47.04938736 348.44718376 47.04938736 348.44718376 23.75170898 359.38818359 Z " fill="#8F2AFE" transform="translate(1564.248291015625,17.61181640625)"/>
<path d="M0 0 C0 0.33 0 0.66 0 1 C-23.43 1 -46.86 1 -71 1 C-67.10641792 -1.92018656 -65.28386289 -2.64199407 -60.6875 -3.625 C-59.59824219 -3.86476563 -58.50898437 -4.10453125 -57.38671875 -4.3515625 C-38.37143659 -7.9923201 -18.11746351 -6.95008842 0 0 Z " fill="#AF0DCA" transform="translate(1678,367)"/>
</svg>
